<svg xmlns="http://www.w3.org/2000/svg" version="1.1" xmlns:xlink="http://www.w3.org/1999/xlink" xmlns:svgjs="http://svgjs.dev/svgjs" width="1500" height="435" viewBox="0 0 1500 435"><g transform="matrix(1,0,0,1,-0.9090909090909918,0.4967819979620174)"><svg viewBox="0 0 396 115" data-background-color="#ffe9d1" preserveAspectRatio="xMidYMid meet" height="435" width="1500" xmlns="http://www.w3.org/2000/svg" xmlns:xlink="http://www.w3.org/1999/xlink"><g id="tight-bounds" transform="matrix(1,0,0,1,0.2400000000000091,-0.13133317187501348)"><svg viewBox="0 0 395.52 115.26266634375006" height="115.26266634375006" width="395.52"><g><svg viewBox="0 0 496.02040331720997 144.55055179825018" height="115.26266634375006" width="395.52"><g><svg viewBox="0 0 395.52 144.55055179825018" height="144.55055179825018" width="395.52"><g id="textblocktransform"><svg viewBox="0 0 395.52 144.55055179825018" height="144.55055179825018" width="395.52" id="textblock"><g><svg viewBox="0 0 395.52 106.86868731719335" height="106.86868731719335" width="395.52"><g transform="matrix(1,0,0,1,0,0)"><svg width="395.52" viewBox="0.8 -37.7 143.29833333333332 37.977160395060004" height="106.86868731719335" data-palette-color="#454bfb"><g class="wordmark-text-0" data-fill-palette-color="primary" id="text-0"><path d="M23.75-34.65L23.75-34.65Q24.1-34.9 24.05-34.68 24-34.45 23.9-34.3L23.9-34.3Q23.45-33.6 22.73-33.1 22-32.6 21.18-32.3 20.35-32 19.55-31.85 18.75-31.7 18.15-31.7L18.15-31.7Q16.6-31.7 14.95-32 13.3-32.3 11.65-32.65L11.65-32.65Q11.55-32.65 11.3-32.75 11.05-32.85 11.05-32.95L11.05-32.95Q10.95-33.1 11.23-33.2 11.5-33.3 11.6-33.3L11.6-33.3Q11.95-33.4 12.53-33.48 13.1-33.55 13.75-33.6 14.4-33.65 14.98-33.65 15.55-33.65 15.95-33.65L15.95-33.65Q17.05-33.55 18.23-33.55 19.4-33.55 20.45-33.65 21.5-33.75 22.38-34 23.25-34.25 23.75-34.65ZM24.45-36.3L24.45-36.3Q24.7-36.4 24.6-36.25 24.5-36.1 24.45-36.05L24.45-36.05Q23.15-34.9 21.6-34.6 20.05-34.3 18.38-34.38 16.7-34.45 14.93-34.68 13.15-34.9 11.35-34.8L11.35-34.8Q10.3-34.75 9.15-34.4 8-34.05 6.98-33.43 5.95-32.8 5.13-31.83 4.3-30.85 3.85-29.6L3.85-29.6Q3.75-29.4 3.73-29.4 3.7-29.4 3.68-29.45 3.65-29.5 3.65-29.6 3.65-29.7 3.65-29.75L3.65-29.75Q3.95-31.55 4.75-32.8 5.55-34.05 6.65-34.83 7.75-35.6 9.05-35.95 10.35-36.3 11.65-36.35L11.65-36.35Q13.45-36.4 15.18-36.23 16.9-36.05 18.53-35.9 20.15-35.75 21.65-35.77 23.15-35.8 24.45-36.3ZM8-32.4L8-32.4Q8.1-32.25 7.7-31.9 7.3-31.55 7.1-31.45L7.1-31.45Q6.7-31.15 6.35-30.88 6-30.6 5.7-30.2L5.7-30.2Q5.3-29.75 5.03-29.3 4.75-28.85 4.5-28.3L4.5-28.3Q4.4-27.95 4.3-27.95L4.3-27.95Q4.25-27.95 4.25-28.3L4.25-28.3 4.25-28.65Q4.35-29.4 4.55-30 4.75-30.6 5.25-31.25L5.25-31.25Q5.45-31.55 5.93-31.83 6.4-32.1 6.85-32.3 7.3-32.5 7.65-32.55 8-32.6 8-32.4ZM21.5-31.3L21.5-31.3Q21.75-31.4 21.73-31.28 21.7-31.15 21.6-31.05L21.6-31.05Q20.95-30.3 19.73-29.95 18.5-29.6 17.1-29.48 15.7-29.35 14.33-29.4 12.95-29.45 12.05-29.45L12.05-29.45Q12.35-28.45 12.33-27.03 12.3-25.6 12.08-23.98 11.85-22.35 11.5-20.7 11.15-19.05 10.8-17.6L10.8-17.6Q12.15-17.5 13.45-17.32 14.75-17.15 15.95-17.07 17.15-17 18.25-17.07 19.35-17.15 20.4-17.55L20.4-17.55Q20.65-17.65 20.65-17.5 20.65-17.35 20.55-17.25L20.55-17.25Q19.35-16.05 17.9-15.75 16.45-15.45 14.85-15.55 13.25-15.65 11.6-15.9 9.95-16.15 8.3-16.1L8.3-16.1Q7.25-16.05 6.2-15.75 5.15-15.45 4.17-14.85 3.2-14.25 2.38-13.38 1.55-12.5 1.05-11.3L1.05-11.3Q1-11.1 0.9-11.1L0.9-11.1Q0.8-11.1 0.8-11.28 0.8-11.45 0.85-11.55L0.85-11.55Q1.1-13 1.7-13.95 2.3-14.9 3.15-15.6L3.15-15.6Q4-19.2 5.08-22.8 6.15-26.4 6.85-29.6L6.85-29.6Q6.8-29.6 6.53-29.63 6.25-29.65 6.25-29.75L6.25-29.75Q6.25-29.85 6.4-29.95 6.55-30.05 6.7-30.15L6.7-30.15Q8.8-31.15 11-31.23 13.2-31.3 15.5-31.1L15.5-31.1Q16.95-31 18.43-30.9 19.9-30.8 21.5-31.3ZM11.65-29.45L10.5-29.45Q10.55-28.2 10.5-27.1 10.45-26 10.2-25.15L10.2-25.15Q9.75-23.35 9.2-21.4 8.65-19.45 7.95-17.6L7.95-17.6Q8.15-17.65 8.4-17.65 8.65-17.65 8.9-17.65L8.9-17.65 9.65-20Q10.35-22.2 10.93-24.55 11.5-26.9 11.65-29.45L11.65-29.45ZM9.3-29.5L8.35-29.5Q7.95-26.5 6.9-23.35 5.85-20.2 5-16.9L5-16.9Q5.4-17.05 5.73-17.18 6.05-17.3 6.35-17.4L6.35-17.4Q6.6-18.4 6.85-19.33 7.1-20.25 7.35-20.95L7.35-20.95Q7.45-21.25 7.7-22.1 7.95-22.95 8.25-24.15 8.55-25.35 8.85-26.75 9.15-28.15 9.3-29.5L9.3-29.5ZM19.95-15.9L19.95-15.9Q20.2-16.1 20.18-15.88 20.15-15.65 20.05-15.55L20.05-15.55Q19.65-14.85 19.03-14.3 18.4-13.75 17.7-13.43 17-13.1 16.28-12.93 15.55-12.75 15-12.8L15-12.8Q13.45-12.9 11.75-13.23 10.05-13.55 8.5-13.9L8.5-13.9Q8.4-13.95 8.18-14.03 7.95-14.1 7.95-14.25L7.95-14.25Q7.9-14.35 8.13-14.48 8.35-14.6 8.45-14.6L8.45-14.6Q8.8-14.7 9.33-14.75 9.85-14.8 10.43-14.85 11-14.9 11.53-14.88 12.05-14.85 12.4-14.8L12.4-14.8Q13.3-14.7 14.38-14.7 15.45-14.7 16.53-14.85 17.6-15 18.5-15.25 19.4-15.5 19.95-15.9ZM21.05-6.5L21.05-6.5Q21.15-6.55 21.15-6.45L21.15-6.45Q21.15-6.35 21.1-6.25L21.1-6.25Q20-5.05 18.68-4.75 17.35-4.45 15.9-4.53 14.45-4.6 12.95-4.9 11.45-5.2 10-5.2L10-5.2Q8.15-5.25 6.23-4.35 4.3-3.45 3-1.25L3-1.25Q2.85-1.05 2.8-1.05L2.8-1.05Q2.75-1.05 2.78-1.2 2.8-1.35 2.8-1.4L2.8-1.4Q3-1.95 3.18-2.25 3.35-2.55 3.55-2.95L3.55-2.95Q2.85-4.35 2.55-5.78 2.25-7.2 2.2-8.75L2.2-8.75Q2.2-9.9 2.4-10.45 2.6-11 3.75-11.6L3.75-11.6Q5.65-12.6 7.8-12.6 9.95-12.6 12.1-12.35L12.1-12.35Q13.5-12.2 14.9-12.13 16.3-12.05 17.8-12.55L17.8-12.55Q18.05-12.65 18-12.48 17.95-12.3 17.85-12.2L17.85-12.2Q17.2-11.4 16.05-11.1 14.9-10.8 13.6-10.73 12.3-10.65 11.1-10.7 9.9-10.75 9.2-10.7L9.2-10.7 8.9-10.7Q8.55-9.5 8.18-8.43 7.8-7.35 7.45-6.35L7.45-6.35Q8.2-6.6 8.88-6.73 9.55-6.85 10.3-6.8L10.3-6.8Q11.75-6.75 13.2-6.5 14.65-6.25 16.03-6.08 17.4-5.9 18.68-5.93 19.95-5.95 21.05-6.5ZM7.2-10.75L7.2-10.75Q6.9-10.8 6.28-10.88 5.65-10.95 4.9-10.85L4.9-10.85Q4.4-10.8 4.05-10.45 3.7-10.1 3.65-9.6L3.65-9.6Q3.55-8.1 3.7-6.73 3.85-5.35 4.2-3.9L4.2-3.9 4.8-4.65Q4.75-5.25 4.75-5.95 4.75-6.65 4.83-7.23 4.9-7.8 5-8.15 5.1-8.5 5.25-8.5L5.25-8.5Q5.35-8.5 5.4-8.25 5.45-8 5.5-7.7 5.55-7.4 5.58-7.1 5.6-6.8 5.6-6.65L5.6-6.65Q5.65-6.35 5.68-6.08 5.7-5.8 5.75-5.5L5.75-5.5Q6-5.65 6.2-5.8 6.4-5.95 6.65-6.05L6.65-6.05Q6.7-8.3 7.2-10.75ZM20.7-4.85L20.7-4.85Q20.7-4.7 20.6-4.5L20.6-4.5Q20.3-3.8 19.75-3.28 19.2-2.75 18.55-2.4 17.9-2.05 17.23-1.88 16.55-1.7 16.05-1.7L16.05-1.7Q14.3-1.7 12.88-2.1 11.45-2.5 10.05-3L10.05-3Q9.95-3.05 9.75-3.15 9.55-3.25 9.5-3.4L9.5-3.4Q9.45-3.5 9.7-3.6 9.95-3.7 10.05-3.7L10.05-3.7Q10.35-3.75 10.83-3.78 11.3-3.8 11.83-3.8 12.35-3.8 12.85-3.78 13.35-3.75 13.7-3.75L13.7-3.75Q14.55-3.7 15.55-3.68 16.55-3.65 17.48-3.78 18.4-3.9 19.23-4.15 20.05-4.4 20.5-4.85L20.5-4.85Q20.65-5 20.7-4.85ZM5.15-13.85L5.15-13.85Q5.15-13.7 4.83-13.4 4.5-13.1 4.08-12.75 3.65-12.4 3.28-12.1 2.9-11.8 2.8-11.7L2.8-11.7Q2.4-11.3 2.05-10.93 1.7-10.55 1.45-10L1.45-10Q1.2-9.55 1.2-9.88 1.2-10.2 1.25-10.35L1.25-10.35Q1.35-10.75 1.58-11.43 1.8-12.1 2.45-12.75L2.45-12.75Q2.75-13 3.18-13.28 3.6-13.55 4.03-13.73 4.45-13.9 4.78-13.95 5.1-14 5.15-13.85ZM18.85-1.45L18.85-1.45Q18.9-1.25 18.7-1.15L18.7-1.15Q18.1-0.65 17.03-0.43 15.95-0.2 14.73-0.1 13.5 0 12.35 0 11.2 0 10.5 0L10.5 0Q9.25 0 7.88-0.18 6.5-0.35 5.5-0.6L5.5-0.6Q5.4-0.65 5.23-0.68 5.05-0.7 5.05-0.8L5.05-0.8Q5.05-0.9 5.23-0.98 5.4-1.05 5.5-1.1L5.5-1.1Q7.4-1.7 9.38-1.63 11.35-1.55 13.35-1.3L13.35-1.3Q14.6-1.1 15.88-1 17.15-0.9 18.55-1.45L18.55-1.45Q18.85-1.55 18.85-1.45ZM7-3.15L7-3.15Q7-3 6.68-2.78 6.35-2.55 5.95-2.3 5.55-2.05 5.18-1.83 4.8-1.6 4.65-1.5L4.65-1.5Q4.25-1.15 3.95-0.9 3.65-0.65 3.35-0.25L3.35-0.25Q3.1 0 3 0L3 0 2.95 0 2.95-0.05Q2.95-0.05 2.95-0.15L2.95-0.15Q3.2-0.9 3.48-1.4 3.75-1.9 4.45-2.45L4.45-2.45Q4.75-2.65 5.15-2.88 5.55-3.1 5.95-3.23 6.35-3.35 6.65-3.35 6.95-3.35 7-3.15ZM38.35-15.75L38.35-15.75Q37.5-14 36.35-12.23 35.2-10.45 33.95-9.05L33.95-9.05Q33.9-8.95 33.7-8.72 33.5-8.5 33.35-8.55L33.35-8.55Q33.25-8.65 33.3-8.9 33.35-9.15 33.4-9.3L33.4-9.3Q33.65-10.1 34.15-11.4 34.65-12.7 35.2-13.5L35.2-13.5Q35.35-13.75 35.82-14.9 36.3-16.05 36.75-17.48 37.2-18.9 37.45-20.25 37.7-21.6 37.4-22.25L37.4-22.25Q37.4-22.25 37.4-22.4L37.4-22.4 37.4-22.45Q37.6-22.45 37.7-22.25L37.7-22.25Q38.25-21.6 38.52-20.75 38.8-19.9 38.85-19 38.9-18.1 38.77-17.23 38.65-16.35 38.35-15.75ZM40-18.85L40-18.85Q40.55-17.8 40.32-16.32 40.1-14.85 39.52-13.3 38.95-11.75 38.22-10.38 37.5-9 37.05-8.15L37.05-8.15Q36.3-6.7 35.22-5.23 34.15-3.75 33.25-2.6L33.25-2.6Q33-2.25 32.8-2.25L32.8-2.25Q32.7-2.35 32.72-2.5 32.75-2.65 32.8-2.8L32.8-2.8Q33.6-5.4 34.8-7.63 36-9.85 37.3-12.25L37.3-12.25Q38.15-13.75 38.82-15.33 39.5-16.9 39.75-18.8L39.75-18.8Q39.75-19.05 39.8-19.05L39.8-19.05Q39.95-19.05 40-18.85ZM29.35-17.2L29.35-17.2Q29.35-15.35 29.07-13.2 28.8-11.05 28.5-9.5L28.5-9.5Q28.5-9.4 28.42-9.15 28.35-8.9 28.15-8.85L28.15-8.85Q28.05-8.85 27.97-9.1 27.9-9.35 27.85-9.45L27.85-9.45Q27.75-9.85 27.67-10.43 27.6-11 27.55-11.6 27.5-12.2 27.47-12.8 27.45-13.4 27.5-13.85L27.5-13.85Q27.55-14.15 27.45-15.35 27.35-16.55 27.15-17.95 26.95-19.35 26.6-20.63 26.25-21.9 25.75-22.4L25.75-22.4Q25.65-22.5 25.62-22.63 25.6-22.75 25.65-22.75L25.65-22.75Q25.75-22.75 25.87-22.7 26-22.65 26.1-22.6L26.1-22.6Q26.8-22.3 27.4-21.65 28-21 28.42-20.23 28.85-19.45 29.1-18.65 29.35-17.85 29.35-17.2ZM32.15 0L32.15 0Q32.15 0.2 32.05 0.2L32.05 0.2Q32 0.2 31.87 0.13 31.75 0.05 31.65 0L31.65 0Q31.25-0.3 31.07-0.85 30.9-1.4 31-2.5L31-2.5Q31-2.95 31.1-3.5 31.2-4.05 31.35-4.53 31.5-5 31.65-5.28 31.8-5.55 31.95-5.5L31.95-5.5Q32.2-5.4 32.17-4.88 32.15-4.35 32.15-4.1L32.15-4.1Q32.1-2.8 32.1-1.75 32.1-0.7 32.15 0ZM29.3-2.55L29.3-2.55Q29.05-2.85 28.85-3.35 28.65-3.85 28.5-4.33 28.35-4.8 28.32-5.15 28.3-5.5 28.45-5.55L28.45-5.55Q28.7-5.6 28.92-5.28 29.15-4.95 29.3-4.65L29.3-4.65Q29.25-5.7 29.42-6.78 29.6-7.85 29.7-8.75L29.7-8.75Q29.85-10.05 29.95-11.08 30.05-12.1 30.1-13.55L30.1-13.55Q30.2-15.1 30.1-16.95 30-18.8 29.3-20.55L29.3-20.55Q29.25-20.7 29.35-20.7L29.35-20.7Q29.45-20.7 29.5-20.65 29.55-20.6 29.65-20.55L29.65-20.55Q30.3-20.05 30.72-19.18 31.15-18.3 31.37-17.23 31.6-16.15 31.67-14.98 31.75-13.8 31.75-12.75L31.75-12.75Q32.5-14.1 33.3-15.43 34.1-16.75 34.7-18.07 35.3-19.4 35.65-20.68 36-21.95 35.95-23.2L35.95-23.2Q35.95-23.4 36-23.45L36-23.45Q36.05-23.45 36.2-23.2L36.2-23.2Q36.9-21.55 36.65-19.88 36.4-18.2 35.62-16.53 34.85-14.85 33.8-13.18 32.75-11.5 31.95-9.85L31.95-9.85Q30.95-7.75 30.52-5.25 30.1-2.75 30.8 0L30.8 0 30.8 0.05Q30.75 0.1 30.75 0.1L30.75 0.1Q30.65 0.1 30.6 0.05L30.6 0.05Q30.55 0.05 30.55 0L30.55 0Q30.4-0.2 30.2-0.4 30-0.6 29.65-0.8L29.65-0.8Q28.2-1.55 27.25-2.55 26.3-3.55 25.77-4.7 25.25-5.85 25.02-7.1 24.8-8.35 24.8-9.6L24.8-9.6Q24.75-11.4 24.87-13.23 25-15.05 25.02-16.75 25.05-18.45 24.85-20.03 24.65-21.6 24-22.9L24-22.9Q24-23 24-23L24-23Q24.1-23.1 24.2-23.05 24.3-23 24.35-22.95L24.35-22.95Q25.65-21.75 26.1-20.15 26.55-18.55 26.6-16.75 26.65-14.95 26.45-13.05 26.25-11.15 26.3-9.3L26.3-9.3Q26.35-8.2 26.55-7.05 26.75-5.9 27.2-4.83 27.65-3.75 28.37-2.75 29.1-1.75 30.1-0.95L30.1-0.95Q29.9-1.45 29.8-1.68 29.7-1.9 29.3-2.55ZM55.3-20.4L55.3-20.4Q55.7-19.9 55.92-19.15 56.15-18.4 56.1-17.53 56.05-16.65 55.7-15.7 55.35-14.75 54.6-13.85L54.6-13.85Q53.15-12.15 51.42-11.23 49.7-10.3 48.3-10.3L48.3-10.3Q47.45-10.3 48.3-10.6L48.3-10.6Q48.75-10.75 49.37-11.08 50-11.4 50.7-11.88 51.4-12.35 52.12-13 52.85-13.65 53.45-14.5L53.45-14.5Q54.45-15.9 54.62-17.23 54.8-18.55 54.1-19.25L54.1-19.25Q53.5-19.85 52.7-19.93 51.9-20 50.3-19.05L50.3-19.05Q48.85-18.2 47.7-16.95 46.55-15.7 45.55-14.3L45.55-14.3Q45-13.6 44.82-13.6 44.65-13.6 44.95-14.5L44.95-14.5Q45.55-16.25 46.62-17.75 47.7-19.25 49.2-20.3L49.2-20.3Q50.3-21.05 51.22-21.35 52.15-21.65 52.92-21.6 53.7-21.55 54.3-21.23 54.9-20.9 55.3-20.4ZM58-16.9L58-16.9Q57.8-15.7 57.37-14.88 56.95-14.05 56.42-13.48 55.9-12.9 55.37-12.55 54.85-12.2 54.45-11.9L54.45-11.9Q54.25-11.75 54.15-11.85 54.05-11.95 54.3-12.2L54.3-12.2Q55.2-12.95 56.12-14.23 57.05-15.5 57.1-17.05L57.1-17.05Q57.1-19.7 55.8-21.1L55.8-21.1Q54.5-22.5 52.55-22.33 50.6-22.15 48.5-20.8L48.5-20.8Q47.15-19.95 46.12-18.82 45.1-17.7 44.35-16.43 43.6-15.15 43.12-13.8 42.65-12.45 42.45-11.1L42.45-11.1Q42.25-9.8 42.07-8.3 41.9-6.8 42.07-5.35 42.25-3.9 43-2.58 43.75-1.25 45.35-0.3L45.35-0.3Q45.6-0.15 45.87-0.1 46.15-0.05 46.15 0L46.15 0Q46.15 0.1 45.9 0.13 45.65 0.15 45.35 0.05L45.35 0.05Q44.1-0.2 43.22-0.98 42.35-1.75 41.8-2.75 41.25-3.75 40.95-4.85 40.65-5.95 40.6-6.85L40.6-6.85Q40.3-10.8 41.7-14.65L41.7-14.65Q42-15.45 42.47-16.45 42.95-17.45 43.65-18.48 44.35-19.5 45.3-20.48 46.25-21.45 47.45-22.2L47.45-22.2Q48.6-22.9 49.85-23.25 51.1-23.6 52.35-23.58 53.6-23.55 54.7-23.13 55.8-22.7 56.65-21.85L56.65-21.85Q57.4-21.05 57.82-19.8 58.25-18.55 58-16.9ZM53.45-18.7L53.45-18.7Q54.05-18 53.6-16.53 53.15-15.05 51.5-13.55L51.5-13.55Q50.6-12.7 49.75-12.18 48.9-11.65 47.6-11.25L47.6-11.25Q47.05-9.35 46.9-7.5 46.75-5.65 47-4.5L47-4.5Q47.05-4.05 47.32-3.63 47.6-3.2 48.12-2.98 48.65-2.75 49.5-2.8 50.35-2.85 51.6-3.35L51.6-3.35Q51.95-3.5 52.02-3.43 52.1-3.35 51.7-3.1L51.7-3.1Q50.8-2.4 49.8-2.13 48.8-1.85 47.92-1.95 47.05-2.05 46.42-2.55 45.8-3.05 45.6-3.9L45.6-3.9Q45.2-5.65 45.25-7.55 45.3-9.45 45.82-11.3 46.35-13.15 47.32-14.78 48.3-16.4 49.75-17.55L49.75-17.55Q52.45-19.7 53.45-18.7ZM52.95-2.75L52.95-2.75Q52.6-2.25 52.07-1.78 51.55-1.3 50.87-0.93 50.2-0.55 49.47-0.3 48.75-0.05 48-0.05L48-0.05Q46.7-0.05 45.57-0.63 44.45-1.2 43.85-2.95L43.85-2.95Q43.75-3.15 43.75-3.33 43.75-3.5 43.85-3.5L43.85-3.5Q44.05-3.6 44.25-3.38 44.45-3.15 44.65-2.9L44.65-2.9Q45.2-2.25 46.07-1.75 46.95-1.25 47.75-1.25L47.75-1.25Q49.25-1.25 50.35-1.7 51.45-2.15 52.45-2.9L52.45-2.9Q52.7-3.05 53.02-3.2 53.35-3.35 52.95-2.75ZM52.25-17.35L52.25-17.35Q52.05-17.75 50.8-16.7L50.8-16.7Q49.65-15.8 48.97-14.63 48.3-13.45 47.8-12.05L47.8-12.05Q48.75-12.5 49.55-13.08 50.35-13.65 51.05-14.2L51.05-14.2Q51.8-14.85 52.15-15.9 52.5-16.95 52.25-17.35ZM74.79-17.95L74.79-17.95Q74.89-16.4 74.59-14.98 74.29-13.55 73.84-12.35L73.84-12.35Q73.74-12.1 73.52-11.8 73.29-11.5 73.09-11.6L73.09-11.6Q72.99-11.6 73.04-11.95 73.09-12.3 73.09-12.45L73.09-12.45Q73.14-13 73.17-13.83 73.19-14.65 73.19-15.5 73.19-16.35 73.12-17.13 73.04-17.9 72.89-18.45L72.89-18.45Q72.44-20.05 71.47-20.23 70.49-20.4 69.49-19.7 68.49-19 67.59-17.75 66.69-16.5 66.39-15.3L66.39-15.3Q66.69-15.75 67.17-16.38 67.64-17 68.24-17.57 68.84-18.15 69.52-18.53 70.19-18.9 70.79-18.85L70.79-18.85Q71.44-18.8 71.72-18.15 71.99-17.5 72.04-16.55 72.09-15.6 71.94-14.5 71.79-13.4 71.59-12.45L71.59-12.45Q71.24-10.9 70.99-9.25 70.74-7.6 70.82-6.03 70.89-4.45 71.37-2.98 71.84-1.5 72.99-0.25L72.99-0.25Q73.09-0.1 73.14 0 73.19 0.1 72.89-0.05L72.89-0.05Q71.59-0.8 70.82-1.8 70.04-2.8 69.64-3.95 69.24-5.1 69.17-6.35 69.09-7.6 69.19-8.85L69.19-8.85Q69.39-10.65 69.79-12 70.19-13.35 70.39-15.05L70.39-15.05Q70.49-16.1 70.24-16.43 69.99-16.75 69.64-16.8L69.64-16.8Q69.14-16.85 68.52-16.28 67.89-15.7 67.22-14.65 66.54-13.6 65.92-12.2 65.29-10.8 64.84-9.25L64.84-9.25Q64.44-7.7 63.87-6.03 63.29-4.35 62.79-3.15L62.79-3.15Q62.59-2.7 62.49-2.7L62.49-2.7Q62.39-2.7 62.32-2.9 62.24-3.1 62.24-3.2L62.24-3.2Q62.04-5.7 62.69-8.15 63.34-10.6 64.19-13.1L64.19-13.1Q64.69-14.65 65.09-15.85 65.49-17.05 65.49-18.9L65.49-18.9Q65.49-19.7 65.89-20.58 66.29-21.45 67.07-22.18 67.84-22.9 68.99-23.35 70.14-23.8 71.59-23.75L71.59-23.75Q73.99-23.7 75.29-22.63 76.59-21.55 77.12-19.9 77.64-18.25 77.57-16.32 77.49-14.4 77.14-12.6L77.14-12.6Q76.84-11.25 76.44-10.15 76.04-9.05 75.59-8.1 75.14-7.15 74.74-6.3 74.34-5.45 74.09-4.6L74.09-4.6Q74.04-4.45 73.99-4.28 73.94-4.1 73.84-4.1L73.84-4.1Q73.74-4.1 73.69-4.3 73.64-4.5 73.64-4.75L73.64-4.75Q73.54-6.45 73.99-8.03 74.44-9.6 74.94-11.28 75.44-12.95 75.69-14.8 75.94-16.65 75.49-18.9L75.49-18.9Q75.04-21.3 73.29-22.1 71.54-22.9 69.29-22L69.29-22Q68.99-21.85 68.49-21.55 67.99-21.25 67.52-20.75 67.04-20.25 66.64-19.58 66.24-18.9 66.14-18.1L66.14-18.1Q66.74-19 67.54-19.8 68.34-20.6 69.24-21.08 70.14-21.55 71.07-21.65 71.99-21.75 72.89-21.3L72.89-21.3Q73.94-20.75 74.34-19.78 74.74-18.8 74.79-17.95ZM64.59-16.6L64.59-16.6Q64.04-14.7 63.12-12.85 62.19-11 61.59-9.3L61.59-9.3Q61.54-9.2 61.42-8.93 61.29-8.65 61.09-8.7L61.09-8.7Q60.99-8.75 60.97-9.03 60.94-9.3 60.94-9.45L60.94-9.45Q60.94-10.25 61.22-11.58 61.49-12.9 61.79-13.75L61.79-13.75Q61.89-14.05 62.17-15.28 62.44-16.5 62.67-17.95 62.89-19.4 62.97-20.75 63.04-22.1 62.69-22.7L62.69-22.7Q62.49-23.05 62.69-23.05L62.69-23.05Q62.84-23.05 63.09-22.8L63.09-22.8Q63.69-22.25 64.07-21.45 64.44-20.65 64.62-19.78 64.79-18.9 64.77-18.05 64.74-17.2 64.59-16.6ZM74.79-0.05L74.79-0.05Q74.69 0 74.39-0.1L74.39-0.1Q74.24-0.15 74.14-0.2L74.14-0.2Q73.44-0.65 72.94-1.23 72.44-1.8 71.94-3.2L71.94-3.2Q71.79-3.7 71.72-4.48 71.64-5.25 71.69-6 71.74-6.75 71.87-7.28 71.99-7.8 72.24-7.8L72.24-7.8Q72.34-7.8 72.47-7.23 72.59-6.65 72.72-5.9 72.84-5.15 72.99-4.4 73.14-3.65 73.24-3.3L73.24-3.3Q73.49-2.55 73.74-1.8 73.99-1.05 74.54-0.5L74.54-0.5Q74.64-0.4 74.74-0.23 74.84-0.05 74.79-0.05ZM61.29 0.05L61.29 0.05Q59.74-1 58.92-2.25 58.09-3.5 57.79-4.85 57.49-6.2 57.57-7.6 57.64-9 57.94-10.35L57.94-10.35Q58.34-12.15 58.97-13.93 59.59-15.7 60.17-17.38 60.74-19.05 61.07-20.65 61.39-22.25 61.14-23.7L61.14-23.7Q61.14-23.9 61.19-23.9L61.19-23.9Q61.29-23.9 61.44-23.65L61.44-23.65Q62.34-22.05 62.29-20.35 62.24-18.65 61.74-16.88 61.24-15.1 60.52-13.28 59.79-11.45 59.39-9.6L59.39-9.6Q59.14-8.45 59.07-7.18 58.99-5.9 59.24-4.65 59.49-3.4 60.07-2.2 60.64-1 61.64-0.05L61.64-0.05Q61.84 0.05 61.74 0.15L61.74 0.15Q61.64 0.25 61.52 0.18 61.39 0.1 61.29 0.05ZM63.19 0.25L63.19 0.25Q63.04 0.35 62.79 0.1L62.79 0.1Q62.24-0.3 61.72-0.75 61.19-1.2 60.69-2.2L60.69-2.2Q60.49-2.55 60.39-3.1 60.29-3.65 60.29-4.17 60.29-4.7 60.37-5.05 60.44-5.4 60.59-5.4L60.59-5.4Q60.79-5.35 60.92-4.85 61.04-4.35 61.14-4.2L61.14-4.2Q61.34-3.65 61.49-3.18 61.64-2.7 61.84-2.25L61.84-2.25Q62.14-1.55 62.44-1.05 62.74-0.55 63.14-0.05L63.14-0.05Q63.19 0 63.24 0.1 63.29 0.2 63.19 0.25ZM92.74-22.2L92.74-22.2Q92.79-22.15 92.79-21.98 92.79-21.8 92.74-21.7L92.74-21.7Q92.29-20.25 91.19-19.65 90.09-19.05 89.24-19.05L89.24-19.05Q88.19-19.05 87.09-19.23 85.99-19.4 84.99-20.15L84.99-20.15Q84.89-20.25 84.74-20.35 84.59-20.45 84.59-20.55L84.59-20.55Q84.59-20.7 84.74-20.78 84.89-20.85 84.99-20.9L84.99-20.9Q85.44-21 86.17-21.08 86.89-21.15 87.59-21.05L87.59-21.05Q88.09-20.95 88.79-20.95 89.49-20.95 90.22-21.05 90.94-21.15 91.54-21.38 92.14-21.6 92.44-22.05L92.44-22.05Q92.59-22.25 92.74-22.2ZM93.09-23.75L93.09-23.75 92.94-23.5Q92.09-22.4 91.14-22.08 90.19-21.75 89.14-21.8 88.09-21.85 87.02-22.08 85.94-22.3 84.89-22.35L84.89-22.35Q83.49-22.4 82.09-21.5 80.69-20.6 79.69-18.35L79.69-18.35Q79.54-18.05 79.49-18.23 79.44-18.4 79.49-18.55L79.49-18.55Q79.89-20.05 80.44-21.05 80.99-22.05 81.62-22.68 82.24-23.3 82.94-23.6 83.64-23.9 84.39-24L84.39-24Q85.24-26.85 85.72-29.58 86.19-32.3 85.79-34.75L85.79-34.75Q85.79-34.95 85.79-34.95L85.79-34.95Q85.89-35 85.99-34.9 86.09-34.8 86.09-34.75L86.09-34.75Q87.19-32.35 86.99-29.63 86.79-26.9 85.99-23.9L85.99-23.9Q86.24-23.85 86.39-23.85 86.54-23.85 86.74-23.85L86.74-23.85Q86.99-25.15 87.22-26.63 87.44-28.1 87.57-29.45 87.69-30.8 87.64-31.9 87.59-33 87.29-33.55L87.29-33.55Q87.14-34 87.29-34L87.29-34Q87.39-34 87.44-33.9 87.49-33.8 87.59-33.7L87.59-33.7Q88.29-33 88.69-31.8 89.09-30.6 89.24-29.25 89.39-27.9 89.34-26.58 89.29-25.25 89.04-24.25L89.04-24.25 88.84-23.45Q88.99-23.35 89.14-23.35 89.29-23.35 89.44-23.3L89.44-23.3Q89.74-24.8 89.97-26.3 90.19-27.8 90.14-29.45L90.14-29.45Q90.14-29.8 90.19-29.8L90.19-29.8Q90.29-29.8 90.34-29.65 90.39-29.5 90.44-29.4L90.44-29.4Q91.04-28.3 91.02-26.65 90.99-25 90.74-23.15L90.74-23.15Q91.84-23.15 92.84-23.75L92.84-23.75Q93.09-23.9 93.09-23.75ZM82.74-20.35L82.74-20.35Q82.74-20.1 82.47-19.85 82.19-19.6 82.04-19.5L82.04-19.5Q81.79-19.3 81.47-19.03 81.14-18.75 80.89-18.45L80.89-18.45Q80.64-18.05 80.42-17.75 80.19-17.45 80.04-16.9L80.04-16.9Q79.99-16.8 79.92-16.73 79.84-16.65 79.79-16.7L79.79-16.7Q79.64-16.85 79.79-17.35L79.79-17.35Q79.99-18.1 80.19-18.57 80.39-19.05 80.94-19.6L80.94-19.6Q81.14-19.8 81.44-20 81.74-20.2 82.04-20.35 82.34-20.5 82.54-20.5 82.74-20.5 82.74-20.35ZM86.64-0.25L86.64-0.25Q86.89-0.35 86.84-0.2 86.79-0.05 86.69 0L86.69 0Q85.79 0.3 84.79-0.1 83.79-0.5 82.94-1.35 82.09-2.2 81.49-3.33 80.89-4.45 80.74-5.55L80.74-5.55Q80.49-7.9 80.69-10.1 80.89-12.3 81.44-14.45L81.44-14.45 82.29-17.6Q81.99-17.6 81.69-17.75L81.69-17.75Q81.34-17.85 81.34-18L81.34-18Q81.34-18.1 81.69-18.3L81.69-18.3Q83.09-19 84.52-18.9 85.94-18.8 87.39-18.55L87.39-18.55Q88.29-18.4 89.22-18.32 90.14-18.25 91.24-18.7L91.24-18.7Q91.34-18.8 91.44-18.75L91.44-18.75Q91.54-18.65 91.39-18.4L91.39-18.4Q91.09-17.75 90.54-17.45 89.99-17.15 89.39-17L89.39-17Q88.99-15.7 88.69-14.68 88.39-13.65 88.19-12.95L88.19-12.95Q87.64-10.55 86.92-8.08 86.19-5.6 85.94-3.9L85.94-3.9Q85.84-3.35 85.74-3.3L85.74-3.3Q85.64-3.25 85.54-3.5 85.44-3.75 85.39-3.9L85.39-3.9Q85.19-5.35 85.32-6.93 85.44-8.5 85.79-10.15 86.14-11.8 86.59-13.48 87.04-15.15 87.54-16.85L87.54-16.85Q87.29-16.85 87.04-16.85 86.79-16.85 86.54-16.9L86.54-16.9Q86.14-15.85 85.72-14.83 85.29-13.8 84.89-12.9L84.89-12.9Q84.84-12.8 84.67-12.43 84.49-12.05 84.39-12.05L84.39-12.05Q84.19-12.1 84.24-12.53 84.29-12.95 84.29-13.1L84.29-13.1Q84.39-13.85 84.62-14.85 84.84-15.85 85.04-17L85.04-17Q84.79-17.05 84.49-17.07 84.19-17.1 83.89-17.2L83.89-17.2Q83.59-16.2 83.32-15.25 83.04-14.3 82.79-13.35L82.79-13.35Q82.39-11.6 82.19-9.63 81.99-7.65 82.19-5.55L82.19-5.55Q82.29-4.6 82.72-3.6 83.14-2.6 83.74-1.8 84.34-1 85.12-0.55 85.89-0.1 86.64-0.25ZM87.09-1.35L87.09-1.35Q87.34-1.55 87.39-1.38 87.44-1.2 87.19-1.05L87.19-1.05Q86.99-0.9 86.67-0.83 86.34-0.75 85.94-0.8 85.54-0.85 85.09-1.1 84.64-1.35 84.24-1.9L84.24-1.9Q83.89-2.35 83.67-3.2 83.44-4.05 83.34-4.88 83.24-5.7 83.29-6.3 83.34-6.9 83.54-6.9L83.54-6.9Q83.79-6.9 83.92-6.2 84.04-5.5 84.14-5.05L84.14-5.05Q84.34-4.25 84.69-3.4 85.04-2.55 85.44-2.05L85.44-2.05Q85.94-1.4 86.34-1.28 86.74-1.15 87.09-1.35Z" fill="#454bfb" data-fill-palette-color="primary"></path><path d="M113.34-25.4L113.34-25.4Q112.64-22.7 111.61-19.8 110.59-16.9 109.49-14.3L109.49-14.3Q109.44-14.2 109.29-13.83 109.14-13.45 108.94-13.5L108.94-13.5Q108.84-13.5 108.86-13.93 108.89-14.35 108.89-14.5L108.89-14.5Q108.94-15.1 109.09-16 109.24-16.9 109.44-17.85 109.64-18.8 109.84-19.7 110.04-20.6 110.24-21.25L110.24-21.25Q110.34-21.55 110.56-22.48 110.79-23.4 111.06-24.7 111.34-26 111.61-27.5 111.89-29 112.09-30.4 112.29-31.8 112.34-32.95 112.39-34.1 112.19-34.75L112.19-34.75Q112.09-34.95 112.14-35.08 112.19-35.2 112.24-35.2L112.24-35.2Q112.34-35.2 112.39-35.08 112.44-34.95 112.54-34.85L112.54-34.85Q113.09-34 113.39-32.8 113.69-31.6 113.76-30.28 113.84-28.95 113.71-27.65 113.59-26.35 113.34-25.4ZM112.89-14.3L112.89-14.3Q112.29-11.9 111.44-9.4 110.59-6.9 109.94-5L109.94-5Q109.84-4.75 109.74-4.53 109.64-4.3 109.59-4.4L109.59-4.4Q109.49-4.4 109.46-4.65 109.44-4.9 109.44-5.15L109.44-5.15Q109.59-8.9 110.51-12.65 111.44-16.4 112.59-20.2L112.59-20.2Q113.29-22.55 113.86-25.03 114.44-27.5 114.64-30.35L114.64-30.35Q114.64-30.6 114.79-30.6L114.79-30.6Q114.84-30.6 114.89-30.5 114.94-30.4 114.99-30.3L114.99-30.3Q115.54-28.95 115.41-26.78 115.29-24.6 114.84-22.28 114.39-19.95 113.79-17.78 113.19-15.6 112.89-14.3ZM108.29-0.2L108.29-0.2Q108.44 0.1 108.39 0.1L108.39 0.1Q108.29 0.1 108.19 0.05 108.09 0 108.04 0L108.04 0Q106.64-1.65 105.99-3.58 105.34-5.5 105.21-7.55 105.09-9.6 105.36-11.7 105.64-13.8 106.09-15.8L106.09-15.8Q106.74-18.55 107.59-21.28 108.44-24 109.16-26.58 109.89-29.15 110.36-31.55 110.84-33.95 110.79-36.15L110.79-36.15Q110.79-36.4 110.89-36.45L110.89-36.45Q110.94-36.45 111.01-36.3 111.09-36.15 111.09-36.1L111.09-36.1Q111.79-33.7 111.54-31.13 111.29-28.55 110.56-25.85 109.84-23.15 108.94-20.35 108.04-17.55 107.39-14.8L107.39-14.8Q106.99-13.05 106.76-11.15 106.54-9.25 106.61-7.33 106.69-5.4 107.09-3.58 107.49-1.75 108.29-0.2ZM108.84-3.55L108.84-3.55Q109.09-1.95 109.84-0.2L109.84-0.2Q109.89-0.1 109.91 0.05 109.94 0.2 109.84 0.2L109.84 0.2Q109.74 0.2 109.54 0.1L109.54 0.1Q109.44 0.05 109.39-0.05L109.39-0.05Q108.74-0.8 108.36-1.45 107.99-2.1 107.74-3.55L107.74-3.55Q107.64-4.1 107.61-4.95 107.59-5.8 107.64-6.6 107.69-7.4 107.81-7.95 107.94-8.5 108.14-8.5L108.14-8.5Q108.19-8.5 108.26-8.25 108.34-8 108.39-7.68 108.44-7.35 108.46-7.03 108.49-6.7 108.49-6.6L108.49-6.6Q108.59-5.75 108.64-5 108.69-4.25 108.84-3.55ZM129.68-25.15L129.68-25.15Q130.14-22.5 130.23-19.35 130.34-16.2 130.43-13.55L130.43-13.55Q130.43-13.4 130.41-13 130.39-12.6 130.18-12.55L130.18-12.55Q130.09-12.55 129.93-12.98 129.79-13.4 129.73-13.55L129.73-13.55Q129.54-14.15 129.36-14.95 129.18-15.75 129.04-16.57 128.89-17.4 128.79-18.23 128.68-19.05 128.64-19.75L128.64-19.75Q128.64-19.9 128.56-20.6 128.48-21.3 128.34-22.23 128.18-23.15 127.98-24.23 127.79-25.3 127.54-26.3L127.54-26.3Q127.54-24.2 127.46-22.18 127.39-20.15 127.54-18.1L127.54-18.1Q127.64-16.8 127.84-15.58 128.04-14.35 128.29-13.1L128.29-13.1Q128.64-11.35 129.34-9.6 130.04-7.85 131.01-6.3 131.98-4.75 133.26-3.48 134.54-2.2 136.04-1.45L136.04-1.45Q136.29-1.35 136.26-1.23 136.23-1.1 136.04-1.15L136.04-1.15Q133.98-1.6 132.43-2.83 130.89-4.05 129.71-5.75 128.54-7.45 127.79-9.45 127.04-11.45 126.64-13.45L126.64-13.45Q126.48-14.3 126.34-15.15 126.18-16 126.09-16.85L126.09-16.85Q125.33-14.45 124.46-12.15 123.59-9.85 122.79-7.75 121.98-5.65 121.39-3.7 120.79-1.75 120.48 0L120.48 0Q120.43 0.05 120.43 0.1L120.43 0.1Q120.34 0.2 120.34 0.2L120.34 0.2Q120.18 0.2 120.18 0L120.18 0Q119.84-2.3 120.36-4.73 120.89-7.15 121.81-9.7 122.73-12.25 123.79-14.93 124.83-17.6 125.54-20.35L125.54-20.35Q125.98-22.05 126.18-23.98 126.39-25.9 126.29-27.78 126.18-29.65 125.66-31.4 125.14-33.15 124.18-34.6L124.18-34.6Q123.93-34.9 124.04-35L124.04-35Q124.14-35.1 124.33-35 124.54-34.9 124.68-34.75L124.68-34.75Q125.68-33.75 126.46-32.83 127.23-31.9 127.84-30.8 128.43-29.7 128.89-28.35 129.34-27 129.68-25.15ZM135.73-13.5L135.73-13.5Q136.04-14.95 136.29-16.05 136.54-17.15 136.86-18.15 137.18-19.15 137.61-20.18 138.04-21.2 138.68-22.45L138.68-22.45Q138.79-22.6 139.01-22.98 139.23-23.35 139.39-23.3L139.39-23.3Q139.48-23.3 139.43-22.85 139.39-22.4 139.34-22.25L139.34-22.25Q139.18-21.6 138.96-20.75 138.73-19.9 138.48-18.98 138.23-18.05 137.98-17.15 137.73-16.25 137.59-15.6L137.59-15.6Q137.39-14.75 137.16-13.53 136.93-12.3 136.71-10.8 136.48-9.3 136.36-7.6 136.23-5.9 136.29-4.1L136.29-4.1Q135.84-4.35 135.36-4.73 134.89-5.1 134.43-5.8L134.43-5.8Q133.39-7.3 132.81-8.97 132.23-10.65 131.89-12.45 131.54-14.25 131.39-16.13 131.23-18 131.04-19.8L131.04-19.8Q130.79-22.15 130.59-24.55 130.39-26.95 129.54-29.5L129.54-29.5Q129.43-29.75 129.41-29.78 129.39-29.8 129.48-29.85L129.48-29.85Q129.64-29.85 129.79-29.6L129.79-29.6Q130.43-28.95 130.91-27.73 131.39-26.5 131.76-25 132.14-23.5 132.41-21.83 132.68-20.15 132.89-18.57 133.09-17 133.26-15.68 133.43-14.35 133.59-13.5L133.59-13.5Q133.93-16.4 134.34-18.68 134.73-20.95 135.18-22.35L135.18-22.35Q135.59-23.6 136.14-24.95 136.68-26.3 137.34-27.63 137.98-28.95 138.66-30.15 139.34-31.35 139.93-32.25L139.93-32.25Q140.09-32.5 140.23-32.7 140.39-32.9 140.48-32.8L140.48-32.8Q140.59-32.7 140.51-32.48 140.43-32.25 140.34-32L140.34-32Q139.68-30.05 139.11-28.5 138.54-26.95 137.96-25.45 137.39-23.95 136.89-22.33 136.39-20.7 135.89-18.7L135.89-18.7Q135.59-17.4 135.18-15.95 134.79-14.5 134.56-12.98 134.34-11.45 134.41-9.88 134.48-8.3 135.14-6.8L135.14-6.8Q135.09-7.65 135.14-8.72 135.18-9.8 135.31-10.78 135.43-11.75 135.56-12.5 135.68-13.25 135.73-13.5ZM134.73-4.3L134.73-4.3Q135.29-3.7 135.89-3.23 136.48-2.75 137.18-2.35L137.18-2.35Q136.79-4.6 137.04-7.03 137.29-9.45 137.89-11.95 138.48-14.45 139.29-16.95 140.09-19.45 140.84-21.85L140.84-21.85Q141.93-25.35 142.61-29.13 143.29-32.9 143.39-36.65L143.39-36.65Q143.39-37.05 143.43-37.05L143.43-37.05Q143.59-37.05 143.59-36.8L143.59-36.8Q144.04-34.65 144.09-32.63 144.14-30.6 143.89-28.63 143.64-26.65 143.18-24.7 142.73-22.75 142.14-20.75L142.14-20.75Q141.39-18.05 140.59-15.33 139.79-12.6 139.16-9.98 138.54-7.35 138.23-4.83 137.93-2.3 138.14-0.05L138.14-0.05Q138.14 0.15 138.04 0.15L138.04 0.15Q137.93 0.15 137.91 0.08 137.89 0 137.84-0.05L137.84-0.05Q137.64-0.55 137.61-0.6 137.59-0.65 137.43-1.15L137.43-1.15Q137.34-1.55 137.14-1.7 136.93-1.85 136.84-1.9L136.84-1.9Q135.98-2.2 135.39-2.45 134.79-2.7 133.79-3.7L133.79-3.7Q133.39-4.1 132.93-4.8 132.48-5.5 132.14-6.18 131.79-6.85 131.64-7.38 131.48-7.9 131.64-7.95L131.64-7.95Q131.68-7.95 131.89-7.78 132.09-7.6 132.29-7.38 132.48-7.15 132.66-6.9 132.84-6.65 132.89-6.6L132.89-6.6Q133.79-5.25 134.73-4.3ZM120.09-20.95L120.09-20.95Q120.68-23.25 121.51-25.65 122.34-28.05 122.89-29.95L122.89-29.95Q122.98-30.2 123.06-30.4 123.14-30.6 123.23-30.55L123.23-30.55Q123.34-30.55 123.34-30.3 123.34-30.05 123.34-29.8L123.34-29.8Q123.39-26.15 122.39-22.5 121.39-18.85 120.14-15.3L120.14-15.3Q119.34-13.05 118.54-10.73 117.73-8.4 117.34-5.7L117.34-5.7Q117.29-5.45 117.29-5.43 117.29-5.4 117.18-5.4L117.18-5.4Q117.13-5.4 117.04-5.75L117.04-5.75Q116.73-7.1 117.06-9.15 117.38-11.2 117.93-13.43 118.48-15.65 119.14-17.68 119.79-19.7 120.09-20.95ZM119.14-10.3L119.14-10.3Q120.04-12.85 121.16-15.63 122.29-18.4 123.43-20.9L123.43-20.9Q123.48-21 123.68-21.35 123.89-21.7 123.98-21.7L123.98-21.7Q124.09-21.65 124.11-21.25 124.14-20.85 124.04-20.7L124.04-20.7Q123.93-20.1 123.76-19.23 123.59-18.35 123.34-17.43 123.09-16.5 122.84-15.65 122.59-14.8 122.39-14.2L122.39-14.2Q122.23-13.75 121.71-12 121.18-10.25 120.64-8.13 120.09-6 119.66-4 119.23-2 119.34-1.05L119.34-1.05Q119.34-0.6 119.18-0.6L119.18-0.6Q119.14-0.6 119.06-0.78 118.98-0.95 118.89-1.05L118.89-1.05Q118.48-1.9 118.36-3.1 118.23-4.3 118.31-5.6 118.38-6.9 118.61-8.13 118.84-9.35 119.14-10.3ZM141.43-33.45L141.43-33.45Q141.64-34.45 141.73-35.38 141.84-36.3 141.93-37.35L141.93-37.35Q141.93-37.45 141.98-37.58 142.04-37.7 142.14-37.7L142.14-37.7Q142.18-37.7 142.34-37.45L142.34-37.45Q142.39-37.35 142.39-37.25L142.39-37.25Q142.54-36.75 142.61-36.35 142.68-35.95 142.71-35.5 142.73-35.05 142.71-34.48 142.68-33.9 142.54-33.15L142.54-33.15Q142.43-32.55 142.21-31.7 141.98-30.85 141.73-30.08 141.48-29.3 141.26-28.78 141.04-28.25 140.89-28.3L140.89-28.3Q140.79-28.3 140.79-28.58 140.79-28.85 140.84-29.18 140.89-29.5 140.93-29.85 140.98-30.2 140.98-30.4L140.98-30.4 141.43-33.45ZM123.89-31.35L123.89-31.35Q123.68-32.2 123.41-33 123.14-33.8 122.68-34.5L122.68-34.5Q122.48-34.8 122.59-34.85L122.59-34.85Q122.68-34.85 122.89-34.75L122.89-34.75 123.09-34.65Q123.73-34.05 124.21-33.45 124.68-32.85 124.98-31.45L124.98-31.45Q125.14-30.9 125.18-30.08 125.23-29.25 125.21-28.45 125.18-27.65 125.08-27.1 124.98-26.55 124.79-26.6L124.79-26.6Q124.68-26.6 124.64-26.85 124.58-27.1 124.54-27.43 124.48-27.75 124.43-28.05 124.39-28.35 124.39-28.45L124.39-28.45Q124.29-29.25 124.18-29.95 124.09-30.65 123.89-31.35Z" fill="#000000" data-fill-palette-color="secondary"></path></g></svg></g></svg></g><g transform="matrix(1,0,0,1,163.31020799999996,132.0978195442871)"><svg viewBox="0 0 232.20979200000002 12.452732253963093" height="12.452732253963093" width="232.20979200000002"><g transform="matrix(1,0,0,1,0,0)"><svg width="232.20979200000002" viewBox="1.17 -36.74 900.86 48.31" height="12.452732253963093" data-palette-color="#000000"><path d="M13.09 0L8.33 0 1.17-33.84 5.35-33.84 8.91-15.19Q9.4-12.45 9.92-9.74 10.45-7.03 10.91-4.27L10.91-4.27 11.11-4.27Q11.69-7.03 12.32-9.74 12.94-12.45 13.55-15.19L13.55-15.19 18.43-33.84 22.09-33.84 26.78-15.19Q27.44-12.48 28.08-9.75 28.71-7.03 29.32-4.27L29.32-4.27 29.52-4.27Q30.03-7.03 30.51-9.75 30.98-12.48 31.47-15.19L31.47-15.19 35.23-33.84 39.11-33.84 31.88 0 27.1 0 21.9-20.75Q21.46-22.78 21.04-24.65 20.63-26.51 20.24-28.49L20.24-28.49 20.04-28.49Q19.65-26.51 19.2-24.65 18.75-22.78 18.33-20.75L18.33-20.75 13.09 0ZM48.63 0L44.68 0 44.68-36.74 48.63-36.74 48.63-26.64 48.48-21.44Q50.29-23.17 52.29-24.39 54.29-25.61 56.88-25.61L56.88-25.61Q60.79-25.61 62.62-23.13 64.45-20.65 64.45-15.87L64.45-15.87 64.45 0 60.54 0 60.54-15.36Q60.54-18.92 59.4-20.56 58.25-22.19 55.64-22.19L55.64-22.19Q53.71-22.19 52.15-21.17 50.58-20.14 48.63-18.19L48.63-18.19 48.63 0ZM82.64 0.61L82.64 0.61Q79.34 0.61 76.64-0.95 73.95-2.51 72.35-5.44 70.75-8.37 70.75-12.45L70.75-12.45Q70.75-16.53 72.35-19.48 73.95-22.44 76.51-24.02 79.07-25.61 81.93-25.61L81.93-25.61Q86.64-25.61 89.23-22.46 91.82-19.31 91.82-13.89L91.82-13.89Q91.82-12.52 91.67-11.57L91.67-11.57 74.65-11.57Q74.85-7.5 77.14-5 79.44-2.51 83.1-2.51L83.1-2.51Q84.98-2.51 86.54-3.02 88.11-3.52 89.45-4.42L89.45-4.42 90.84-1.95Q89.2-0.83 87.23-0.11 85.25 0.61 82.64 0.61ZM74.6-14.43L74.6-14.43 88.33-14.43Q88.33-18.36 86.66-20.41 85-22.46 81.98-22.46L81.98-22.46Q79.27-22.46 77.13-20.36 75-18.26 74.6-14.43ZM101.99 0L98.04 0 98.04-24.98 101.34-24.98 101.7-20.46 101.8-20.46Q103.12-22.8 104.95-24.21 106.78-25.61 108.9-25.61L108.9-25.61Q110.51-25.61 111.54-25.1L111.54-25.1 110.66-21.73Q110.12-21.9 109.65-21.97 109.17-22.05 108.39-22.05L108.39-22.05Q106.8-22.05 105.05-20.74 103.29-19.43 101.99-16.16L101.99-16.16 101.99 0ZM125.75 0.61L125.75 0.61Q122.45 0.61 119.75-0.95 117.06-2.51 115.46-5.44 113.86-8.37 113.86-12.45L113.86-12.45Q113.86-16.53 115.46-19.48 117.06-22.44 119.62-24.02 122.18-25.61 125.04-25.61L125.04-25.61Q129.75-25.61 132.34-22.46 134.93-19.31 134.93-13.89L134.93-13.89Q134.93-12.52 134.78-11.57L134.78-11.57 117.76-11.57Q117.96-7.5 120.25-5 122.55-2.51 126.21-2.51L126.21-2.51Q128.09-2.51 129.65-3.02 131.22-3.52 132.56-4.42L132.56-4.42 133.95-1.95Q132.31-0.83 130.34-0.11 128.36 0.61 125.75 0.61ZM117.71-14.43L117.71-14.43 131.44-14.43Q131.44-18.36 129.78-20.41 128.12-22.46 125.09-22.46L125.09-22.46Q122.38-22.46 120.24-20.36 118.11-18.26 117.71-14.43ZM166.95 0.61L166.95 0.61Q163.32 0.61 160.34-0.74 157.36-2.1 155.19-4.42L155.19-4.42 157.46-7.1Q159.26-5.13 161.78-4.03 164.29-2.93 167-2.93L167-2.93Q170.44-2.93 172.37-4.49 174.3-6.05 174.3-8.59L174.3-8.59Q174.3-10.4 173.54-11.49 172.79-12.57 171.49-13.29 170.2-14.01 168.59-14.72L168.59-14.72 163.71-16.89Q162.14-17.58 160.56-18.65 158.97-19.73 157.91-21.41 156.85-23.1 156.85-25.56L156.85-25.56Q156.85-28.15 158.21-30.15 159.58-32.15 161.96-33.31 164.34-34.47 167.34-34.47L167.34-34.47Q170.44-34.47 172.98-33.3 175.52-32.13 177.26-30.4L177.26-30.4 175.03-27.71Q173.5-29.17 171.54-30.04 169.59-30.91 167.34-30.91L167.34-30.91Q164.46-30.91 162.69-29.52 160.92-28.13 160.92-25.81L160.92-25.81Q160.92-24.15 161.78-23.07 162.63-22 163.93-21.3 165.22-20.61 166.54-20.04L166.54-20.04 171.37-17.97Q173.35-17.14 174.94-15.99 176.52-14.84 177.45-13.15 178.38-11.45 178.38-8.91L178.38-8.91Q178.38-6.25 176.99-4.09 175.6-1.93 173.04-0.66 170.49 0.61 166.95 0.61ZM194.71 0.61L194.71 0.61Q191.41 0.61 188.72-0.95 186.02-2.51 184.42-5.44 182.82-8.37 182.82-12.45L182.82-12.45Q182.82-16.53 184.42-19.48 186.02-22.44 188.58-24.02 191.14-25.61 194-25.61L194-25.61Q198.71-25.61 201.3-22.46 203.89-19.31 203.89-13.89L203.89-13.89Q203.89-12.52 203.74-11.57L203.74-11.57 186.73-11.57Q186.92-7.5 189.22-5 191.51-2.51 195.17-2.51L195.17-2.51Q197.05-2.51 198.62-3.02 200.18-3.52 201.52-4.42L201.52-4.42 202.91-1.95Q201.28-0.83 199.3-0.11 197.32 0.61 194.71 0.61ZM186.68-14.43L186.68-14.43 200.4-14.43Q200.4-18.36 198.74-20.41 197.08-22.46 194.05-22.46L194.05-22.46Q191.34-22.46 189.2-20.36 187.07-18.26 186.68-14.43ZM215.87 0.61L215.87 0.61Q212.75 0.61 210.65-1.21 208.55-3.03 208.55-6.42L208.55-6.42Q208.55-10.52 212.27-12.72 216-14.92 224.03-15.82L224.03-15.82Q224.03-17.48 223.58-18.97 223.12-20.46 221.99-21.41 220.85-22.36 218.75-22.36L218.75-22.36Q216.53-22.36 214.59-21.51 212.65-20.65 211.19-19.73L211.19-19.73 209.65-22.36Q211.31-23.51 213.83-24.56 216.36-25.61 219.39-25.61L219.39-25.61Q223.95-25.61 225.97-22.8 227.98-20 227.98-15.41L227.98-15.41 227.98 0 224.69 0 224.37-3.03 224.22-3.03Q222.42-1.54 220.3-0.46 218.19 0.61 215.87 0.61ZM216.95-2.56L216.95-2.56Q218.83-2.56 220.48-3.44 222.12-4.32 224.03-5.96L224.03-5.96 224.03-13.18Q219.71-12.65 217.17-11.77 214.63-10.89 213.53-9.64 212.43-8.4 212.43-6.74L212.43-6.74Q212.43-4.52 213.75-3.54 215.07-2.56 216.95-2.56ZM239.92 0L235.96 0 235.96-24.98 239.26-24.98 239.63-21.31 239.72-21.31Q241.38-23.14 243.35-24.38 245.31-25.61 247.56-25.61L247.56-25.61Q250.42-25.61 252.04-24.32 253.66-23.02 254.4-20.8L254.4-20.8Q256.37-22.92 258.42-24.27 260.48-25.61 262.7-25.61L262.7-25.61Q266.53-25.61 268.41-23.13 270.29-20.65 270.29-15.87L270.29-15.87 270.29 0 266.36 0 266.36-15.36Q266.36-18.92 265.19-20.56 264.02-22.19 261.57-22.19L261.57-22.19Q258.69-22.19 255.13-18.19L255.13-18.19 255.13 0 251.15 0 251.15-15.36Q251.15-18.92 249.99-20.56 248.83-22.19 246.36-22.19L246.36-22.19Q243.48-22.19 239.92-18.19L239.92-18.19 239.92 0ZM282.79 0.61L282.79 0.61Q280.54 0.61 279.53-0.77 278.52-2.15 278.52-4.79L278.52-4.79 278.52-36.74 282.47-36.74 282.47-4.47Q282.47-3.47 282.84-3.06 283.2-2.66 283.72-2.66L283.72-2.66Q283.91-2.66 284.09-2.67 284.28-2.69 284.59-2.76L284.59-2.76 285.11 0.2Q284.69 0.37 284.11 0.49 283.52 0.61 282.79 0.61ZM301.51 0.61L301.51 0.61Q298.21 0.61 295.52-0.95 292.82-2.51 291.22-5.44 289.62-8.37 289.62-12.45L289.62-12.45Q289.62-16.53 291.22-19.48 292.82-22.44 295.38-24.02 297.95-25.61 300.8-25.61L300.8-25.61Q305.51-25.61 308.1-22.46 310.69-19.31 310.69-13.89L310.69-13.89Q310.69-12.52 310.54-11.57L310.54-11.57 293.53-11.57Q293.72-7.5 296.02-5 298.31-2.51 301.97-2.51L301.97-2.51Q303.85-2.51 305.42-3.02 306.98-3.52 308.32-4.42L308.32-4.42 309.71-1.95Q308.08-0.83 306.1-0.11 304.12 0.61 301.51 0.61ZM293.48-14.43L293.48-14.43 307.2-14.43Q307.2-18.36 305.54-20.41 303.88-22.46 300.85-22.46L300.85-22.46Q298.14-22.46 296.01-20.36 293.87-18.26 293.48-14.43ZM323.41 0.61L323.41 0.61Q320.62 0.61 318.23-0.33 315.84-1.27 314.13-2.93L314.13-2.93 315.99-5.25Q317.57-3.93 319.37-3.2 321.16-2.47 323.55-2.47L323.55-2.47Q326.07-2.47 327.34-3.67 328.61-4.88 328.61-6.54L328.61-6.54Q328.61-7.86 327.78-8.73 326.95-9.59 325.64-10.21 324.34-10.82 322.89-11.33L322.89-11.33Q321.04-12.01 319.35-12.92 317.67-13.82 316.6-15.19 315.52-16.55 315.52-18.6L315.52-18.6Q315.52-21.53 317.74-23.57 319.97-25.61 324.02-25.61L324.02-25.61Q326.34-25.61 328.3-24.82 330.27-24.02 331.71-22.83L331.71-22.83 329.9-20.51Q328.58-21.46 327.18-21.98 325.78-22.51 324.07-22.51L324.07-22.51Q321.6-22.51 320.47-21.37 319.33-20.24 319.33-18.8L319.33-18.8Q319.33-17.02 320.84-16.11 322.36-15.21 324.63-14.36L324.63-14.36Q326.61-13.67 328.39-12.78 330.17-11.89 331.29-10.47 332.42-9.06 332.42-6.74L332.42-6.74Q332.42-3.71 330.1-1.55 327.78 0.61 323.41 0.61ZM344.89 0.61L344.89 0.61Q342.11 0.61 339.71-0.33 337.32-1.27 335.61-2.93L335.61-2.93 337.47-5.25Q339.05-3.93 340.85-3.2 342.64-2.47 345.04-2.47L345.04-2.47Q347.55-2.47 348.82-3.67 350.09-4.88 350.09-6.54L350.09-6.54Q350.09-7.86 349.26-8.73 348.43-9.59 347.12-10.21 345.82-10.82 344.38-11.33L344.38-11.33Q342.52-12.01 340.84-12.92 339.15-13.82 338.08-15.19 337-16.55 337-18.6L337-18.6Q337-21.53 339.23-23.57 341.45-25.61 345.5-25.61L345.5-25.61Q347.82-25.61 349.78-24.82 351.75-24.02 353.19-22.83L353.19-22.83 351.38-20.51Q350.07-21.46 348.66-21.98 347.26-22.51 345.55-22.51L345.55-22.51Q343.08-22.51 341.95-21.37 340.81-20.24 340.81-18.8L340.81-18.8Q340.81-17.02 342.33-16.11 343.84-15.21 346.11-14.36L346.11-14.36Q348.09-13.67 349.87-12.78 351.65-11.89 352.78-10.47 353.9-9.06 353.9-6.74L353.9-6.74Q353.9-3.71 351.58-1.55 349.26 0.61 344.89 0.61ZM380.41 0L376.4 0 376.4-33.84 385.88-33.84Q389.66-33.84 392.5-32.9 395.35-31.96 396.92-29.8 398.5-27.64 398.5-23.95L398.5-23.95Q398.5-18.65 395.07-16.13 391.64-13.6 386.07-13.6L386.07-13.6 380.41-13.6 380.41 0ZM380.41-30.54L380.41-16.85 385.51-16.85Q390.07-16.85 392.28-18.54 394.49-20.24 394.49-23.95L394.49-23.95Q394.49-27.71 392.2-29.13 389.9-30.54 385.31-30.54L385.31-30.54 380.41-30.54ZM409.31 0.61L409.31 0.61Q407.06 0.61 406.05-0.77 405.04-2.15 405.04-4.79L405.04-4.79 405.04-36.74 408.99-36.74 408.99-4.47Q408.99-3.47 409.36-3.06 409.73-2.66 410.24-2.66L410.24-2.66Q410.43-2.66 410.62-2.67 410.8-2.69 411.12-2.76L411.12-2.76 411.63 0.2Q411.21 0.37 410.63 0.49 410.04 0.61 409.31 0.61ZM423.76 0.61L423.76 0.61Q420.64 0.61 418.54-1.21 416.44-3.03 416.44-6.42L416.44-6.42Q416.44-10.52 420.16-12.72 423.88-14.92 431.92-15.82L431.92-15.82Q431.92-17.48 431.46-18.97 431.01-20.46 429.88-21.41 428.74-22.36 426.64-22.36L426.64-22.36Q424.42-22.36 422.48-21.51 420.54-20.65 419.07-19.73L419.07-19.73 417.54-22.36Q419.2-23.51 421.72-24.56 424.25-25.61 427.28-25.61L427.28-25.61Q431.84-25.61 433.86-22.8 435.87-20 435.87-15.41L435.87-15.41 435.87 0 432.57 0 432.26-3.03 432.11-3.03Q430.3-1.54 428.19-0.46 426.08 0.61 423.76 0.61ZM424.84-2.56L424.84-2.56Q426.72-2.56 428.36-3.44 430.01-4.32 431.92-5.96L431.92-5.96 431.92-13.18Q427.59-12.65 425.06-11.77 422.52-10.89 421.42-9.64 420.32-8.4 420.32-6.74L420.32-6.74Q420.32-4.52 421.64-3.54 422.96-2.56 424.84-2.56ZM447.81 0L443.85 0 443.85-24.98 447.15-24.98 447.51-21.39 447.61-21.39Q449.42-23.17 451.44-24.39 453.47-25.61 456.06-25.61L456.06-25.61Q459.96-25.61 461.8-23.13 463.63-20.65 463.63-15.87L463.63-15.87 463.63 0 459.72 0 459.72-15.36Q459.72-18.92 458.57-20.56 457.43-22.19 454.81-22.19L454.81-22.19Q452.88-22.19 451.32-21.17 449.76-20.14 447.81-18.19L447.81-18.19 447.81 0ZM475.83 0L471.88 0 471.88-24.98 475.17-24.98 475.54-21.39 475.64-21.39Q477.44-23.17 479.47-24.39 481.5-25.61 484.08-25.61L484.08-25.61Q487.99-25.61 489.82-23.13 491.65-20.65 491.65-15.87L491.65-15.87 491.65 0 487.75 0 487.75-15.36Q487.75-18.92 486.6-20.56 485.45-22.19 482.84-22.19L482.84-22.19Q480.91-22.19 479.35-21.17 477.78-20.14 475.83-18.19L475.83-18.19 475.83 0ZM503.86 0L499.9 0 499.9-24.98 503.86-24.98 503.86 0ZM501.95-30.25L501.95-30.25Q500.76-30.25 500.02-30.99 499.29-31.74 499.29-32.98L499.29-32.98Q499.29-34.13 500.02-34.86 500.76-35.6 501.95-35.6L501.95-35.6Q503.15-35.6 503.88-34.86 504.61-34.13 504.61-32.98L504.61-32.98Q504.61-31.74 503.88-30.99 503.15-30.25 501.95-30.25ZM516.43 0L512.47 0 512.47-24.98 515.77-24.98 516.13-21.39 516.23-21.39Q518.04-23.17 520.06-24.39 522.09-25.61 524.68-25.61L524.68-25.61Q528.59-25.61 530.42-23.13 532.25-20.65 532.25-15.87L532.25-15.87 532.25 0 528.34 0 528.34-15.36Q528.34-18.92 527.19-20.56 526.05-22.19 523.43-22.19L523.43-22.19Q521.51-22.19 519.94-21.17 518.38-20.14 516.43-18.19L516.43-18.19 516.43 0ZM548.94 11.57L548.94 11.57Q544.31 11.57 541.45 9.83 538.59 8.08 538.59 4.83L538.59 4.83Q538.59 3.2 539.57 1.73 540.55 0.27 542.23-0.85L542.23-0.85 542.23-1.07Q541.33-1.64 540.68-2.65 540.03-3.66 540.03-5.15L540.03-5.15Q540.03-6.74 540.94-7.93 541.84-9.13 542.77-9.79L542.77-9.79 542.77-9.99Q541.52-10.96 540.55-12.71 539.57-14.45 539.57-16.67L539.57-16.67Q539.57-19.41 540.84-21.41 542.11-23.41 544.22-24.51 546.33-25.61 548.85-25.61L548.85-25.61Q549.9-25.61 550.79-25.43 551.68-25.24 552.34-24.98L552.34-24.98 561.05-24.98 561.05-21.95 555.8-21.95Q556.73-21.04 557.34-19.65 557.95-18.26 557.95-16.63L557.95-16.63Q557.95-13.96 556.74-12.01 555.54-10.06 553.47-9 551.41-7.93 548.85-7.93L548.85-7.93Q547.92-7.93 546.93-8.15 545.94-8.37 545.09-8.79L545.09-8.79Q544.4-8.23 543.91-7.52 543.43-6.81 543.43-5.76L543.43-5.76Q543.43-4.52 544.37-3.75 545.31-2.98 547.87-2.98L547.87-2.98 552.8-2.98Q557.15-2.98 559.31-1.54 561.47-0.1 561.47 2.98L561.47 2.98Q561.47 5.27 559.93 7.23 558.39 9.18 555.57 10.38 552.75 11.57 548.94 11.57ZM548.85-10.6L548.85-10.6Q551.09-10.6 552.73-12.24 554.36-13.89 554.36-16.67L554.36-16.67Q554.36-19.51 552.74-21.11 551.12-22.71 548.85-22.71L548.85-22.71Q546.55-22.71 544.96-21.11 543.38-19.51 543.38-16.67L543.38-16.67Q543.38-13.89 545-12.24 546.62-10.6 548.85-10.6ZM549.46 8.79L549.46 8.79Q551.92 8.79 553.73 8.03 555.54 7.28 556.54 6.08 557.54 4.88 557.54 3.54L557.54 3.54Q557.54 1.73 556.26 1.04 554.97 0.34 552.44 0.34L552.44 0.34 547.97 0.34Q547.28 0.34 546.43 0.26 545.57 0.17 544.72-0.05L544.72-0.05Q543.33 0.9 542.71 2.05 542.08 3.2 542.08 4.32L542.08 4.32Q542.08 6.37 544.04 7.58 545.99 8.79 549.46 8.79ZM586.46 0L582.87 0 582.87-33.84 587.76-33.84 594.35-15.5Q594.98-13.72 595.58-11.95 596.18-10.18 596.79-8.4L596.79-8.4 596.99-8.4Q597.62-10.18 598.18-11.95 598.74-13.72 599.35-15.5L599.35-15.5 605.85-33.84 610.8-33.84 610.8 0 607.04 0 607.04-19.17Q607.04-21.36 607.22-24.24 607.39-27.12 607.56-29.37L607.56-29.37 607.34-29.37 604.68-21.39 598.18-3.44 595.4-3.44 588.9-21.39 586.22-29.37 586-29.37Q586.17-27.12 586.32-24.24 586.46-21.36 586.46-19.17L586.46-19.17 586.46 0ZM629.8 0.61L629.8 0.61Q626.5 0.61 623.8-0.95 621.1-2.51 619.51-5.44 617.91-8.37 617.91-12.45L617.91-12.45Q617.91-16.53 619.51-19.48 621.1-22.44 623.67-24.02 626.23-25.61 629.09-25.61L629.09-25.61Q633.8-25.61 636.39-22.46 638.98-19.31 638.98-13.89L638.98-13.89Q638.98-12.52 638.83-11.57L638.83-11.57 621.81-11.57Q622.01-7.5 624.3-5 626.6-2.51 630.26-2.51L630.26-2.51Q632.14-2.51 633.7-3.02 635.26-3.52 636.61-4.42L636.61-4.42 638-1.95Q636.36-0.83 634.39-0.11 632.41 0.61 629.8 0.61ZM621.76-14.43L621.76-14.43 635.48-14.43Q635.48-18.36 633.82-20.41 632.16-22.46 629.14-22.46L629.14-22.46Q626.43-22.46 624.29-20.36 622.15-18.26 621.76-14.43ZM655.23 0.61L655.23 0.61Q651.94 0.61 649.24-0.95 646.54-2.51 644.94-5.44 643.34-8.37 643.34-12.45L643.34-12.45Q643.34-16.53 644.94-19.48 646.54-22.44 649.1-24.02 651.67-25.61 654.52-25.61L654.52-25.61Q659.24-25.61 661.82-22.46 664.41-19.31 664.41-13.89L664.41-13.89Q664.41-12.52 664.27-11.57L664.27-11.57 647.25-11.57Q647.44-7.5 649.74-5 652.03-2.51 655.7-2.51L655.7-2.51Q657.58-2.51 659.14-3.02 660.7-3.52 662.04-4.42L662.04-4.42 663.44-1.95Q661.8-0.83 659.82-0.11 657.85 0.61 655.23 0.61ZM647.2-14.43L647.2-14.43 660.92-14.43Q660.92-18.36 659.26-20.41 657.6-22.46 654.57-22.46L654.57-22.46Q651.86-22.46 649.73-20.36 647.59-18.26 647.2-14.43ZM678.35 0.61L678.35 0.61Q674.42 0.61 672.88-1.66 671.34-3.93 671.34-7.62L671.34-7.62 671.34-21.73 667.63-21.73 667.63-24.78 671.56-24.98 672.03-33.08 675.32-33.08 675.32-24.98 682.18-24.98 682.18-21.73 675.32-21.73 675.32-7.52Q675.32-5.2 676.18-3.91 677.03-2.61 679.23-2.61L679.23-2.61Q679.89-2.61 680.62-2.75 681.35-2.88 682.11-3.22L682.11-3.22 682.99-0.44Q681.99 0 680.79 0.31 679.6 0.61 678.35 0.61ZM694.34 0.61L694.34 0.61Q691.56 0.61 689.16-0.33 686.77-1.27 685.06-2.93L685.06-2.93 686.92-5.25Q688.5-3.93 690.3-3.2 692.09-2.47 694.49-2.47L694.49-2.47Q697-2.47 698.27-3.67 699.54-4.88 699.54-6.54L699.54-6.54Q699.54-7.86 698.71-8.73 697.88-9.59 696.57-10.21 695.27-10.82 693.83-11.33L693.83-11.33Q691.97-12.01 690.29-12.92 688.6-13.82 687.53-15.19 686.45-16.55 686.45-18.6L686.45-18.6Q686.45-21.53 688.68-23.57 690.9-25.61 694.95-25.61L694.95-25.61Q697.27-25.61 699.23-24.82 701.2-24.02 702.64-22.83L702.64-22.83 700.83-20.51Q699.51-21.46 698.11-21.98 696.71-22.51 695-22.51L695-22.51Q692.53-22.51 691.4-21.37 690.26-20.24 690.26-18.8L690.26-18.8Q690.26-17.02 691.78-16.11 693.29-15.21 695.56-14.36L695.56-14.36Q697.54-13.67 699.32-12.78 701.1-11.89 702.22-10.47 703.35-9.06 703.35-6.74L703.35-6.74Q703.35-3.71 701.03-1.55 698.71 0.61 694.34 0.61ZM735.13 0.61L735.13 0.61Q731.49 0.61 728.51-0.74 725.54-2.1 723.36-4.42L723.36-4.42 725.63-7.1Q727.44-5.13 729.95-4.03 732.47-2.93 735.18-2.93L735.18-2.93Q738.62-2.93 740.55-4.49 742.48-6.05 742.48-8.59L742.48-8.59Q742.48-10.4 741.72-11.49 740.97-12.57 739.67-13.29 738.38-14.01 736.77-14.72L736.77-14.72 731.88-16.89Q730.32-17.58 728.73-18.65 727.15-19.73 726.08-21.41 725.02-23.1 725.02-25.56L725.02-25.56Q725.02-28.15 726.39-30.15 727.76-32.15 730.14-33.31 732.52-34.47 735.52-34.47L735.52-34.47Q738.62-34.47 741.16-33.3 743.7-32.13 745.43-30.4L745.43-30.4 743.21-27.71Q741.67-29.17 739.72-30.04 737.77-30.91 735.52-30.91L735.52-30.91Q732.64-30.91 730.87-29.52 729.1-28.13 729.1-25.81L729.1-25.81Q729.1-24.15 729.95-23.07 730.81-22 732.1-21.3 733.4-20.61 734.72-20.04L734.72-20.04 739.55-17.97Q741.53-17.14 743.11-15.99 744.7-14.84 745.63-13.15 746.56-11.45 746.56-8.91L746.56-8.91Q746.56-6.25 745.16-4.09 743.77-1.93 741.22-0.66 738.67 0.61 735.13 0.61ZM760.15 0.61L760.15 0.61Q756.22 0.61 754.38-1.86 752.53-4.32 752.53-9.11L752.53-9.11 752.53-24.98 756.44-24.98 756.44-9.62Q756.44-6.08 757.6-4.46 758.76-2.83 761.35-2.83L761.35-2.83Q763.3-2.83 764.85-3.85 766.4-4.86 768.26-7.15L768.26-7.15 768.26-24.98 772.16-24.98 772.16 0 768.92 0 768.57-3.96 768.4-3.96Q766.67-1.9 764.69-0.65 762.72 0.61 760.15 0.61ZM790.57 0.61L790.57 0.61Q787.27 0.61 784.64-0.93 782-2.47 780.46-5.38 778.92-8.3 778.92-12.45L778.92-12.45Q778.92-16.63 780.58-19.57 782.24-22.51 784.97-24.06 787.69-25.61 790.86-25.61L790.86-25.61Q793.35-25.61 795.11-24.76 796.87-23.9 798.19-22.66L798.19-22.66 796.18-20.19Q795.13-21.17 793.85-21.74 792.57-22.31 791.03-22.31L791.03-22.31Q788.71-22.31 786.9-21.07 785.08-19.82 784.03-17.61 782.98-15.41 782.98-12.45L782.98-12.45Q782.98-8.06 785.17-5.36 787.37-2.66 790.94-2.66L790.94-2.66Q792.72-2.66 794.23-3.34 795.75-4.03 796.89-5.08L796.89-5.08 798.65-2.56Q795.21 0.61 790.57 0.61ZM814 0.61L814 0.61Q810.71 0.61 808.07-0.93 805.44-2.47 803.9-5.38 802.36-8.3 802.36-12.45L802.36-12.45Q802.36-16.63 804.02-19.57 805.68-22.51 808.4-24.06 811.12-25.61 814.3-25.61L814.3-25.61Q816.79-25.61 818.55-24.76 820.3-23.9 821.62-22.66L821.62-22.66 819.62-20.19Q818.57-21.17 817.29-21.74 816.01-22.31 814.47-22.31L814.47-22.31Q812.15-22.31 810.33-21.07 808.51-19.82 807.46-17.61 806.41-15.41 806.41-12.45L806.41-12.45Q806.41-8.06 808.61-5.36 810.81-2.66 814.37-2.66L814.37-2.66Q816.15-2.66 817.67-3.34 819.18-4.03 820.33-5.08L820.33-5.08 822.09-2.56Q818.64 0.61 814 0.61ZM837.68 0.61L837.68 0.61Q834.39 0.61 831.69-0.95 828.99-2.51 827.39-5.44 825.79-8.37 825.79-12.45L825.79-12.45Q825.79-16.53 827.39-19.48 828.99-22.44 831.56-24.02 834.12-25.61 836.98-25.61L836.98-25.61Q841.69-25.61 844.28-22.46 846.86-19.31 846.86-13.89L846.86-13.89Q846.86-12.52 846.72-11.57L846.72-11.57 829.7-11.57Q829.9-7.5 832.19-5 834.49-2.51 838.15-2.51L838.15-2.51Q840.03-2.51 841.59-3.02 843.15-3.52 844.5-4.42L844.5-4.42 845.89-1.95Q844.25-0.83 842.27-0.11 840.3 0.61 837.68 0.61ZM829.65-14.43L829.65-14.43 843.37-14.43Q843.37-18.36 841.71-20.41 840.05-22.46 837.02-22.46L837.02-22.46Q834.31-22.46 832.18-20.36 830.04-18.26 829.65-14.43ZM859.58 0.61L859.58 0.61Q856.8 0.61 854.4-0.33 852.01-1.27 850.3-2.93L850.3-2.93 852.16-5.25Q853.75-3.93 855.54-3.2 857.33-2.47 859.73-2.47L859.73-2.47Q862.24-2.47 863.51-3.67 864.78-4.88 864.78-6.54L864.78-6.54Q864.78-7.86 863.95-8.73 863.12-9.59 861.81-10.21 860.51-10.82 859.07-11.33L859.07-11.33Q857.21-12.01 855.53-12.92 853.84-13.82 852.77-15.19 851.69-16.55 851.69-18.6L851.69-18.6Q851.69-21.53 853.92-23.57 856.14-25.61 860.19-25.61L860.19-25.61Q862.51-25.61 864.48-24.82 866.44-24.02 867.88-22.83L867.88-22.83 866.07-20.51Q864.76-21.46 863.35-21.98 861.95-22.51 860.24-22.51L860.24-22.51Q857.77-22.51 856.64-21.37 855.5-20.24 855.5-18.8L855.5-18.8Q855.5-17.02 857.02-16.11 858.53-15.21 860.8-14.36L860.8-14.36Q862.78-13.67 864.56-12.78 866.34-11.89 867.47-10.47 868.59-9.06 868.59-6.74L868.59-6.74Q868.59-3.71 866.27-1.55 863.95 0.61 859.58 0.61ZM881.06 0.61L881.06 0.61Q878.28 0.61 875.89-0.33 873.49-1.27 871.78-2.93L871.78-2.93 873.64-5.25Q875.23-3.93 877.02-3.2 878.82-2.47 881.21-2.47L881.21-2.47Q883.72-2.47 884.99-3.67 886.26-4.88 886.26-6.54L886.26-6.54Q886.26-7.86 885.43-8.73 884.6-9.59 883.3-10.21 881.99-10.82 880.55-11.33L880.55-11.33Q878.69-12.01 877.01-12.92 875.33-13.82 874.25-15.19 873.18-16.55 873.18-18.6L873.18-18.6Q873.18-21.53 875.4-23.57 877.62-25.61 881.67-25.61L881.67-25.61Q883.99-25.61 885.96-24.82 887.92-24.02 889.36-22.83L889.36-22.83 887.56-20.51Q886.24-21.46 884.83-21.98 883.43-22.51 881.72-22.51L881.72-22.51Q879.26-22.51 878.12-21.37 876.99-20.24 876.99-18.8L876.99-18.8Q876.99-17.02 878.5-16.11 880.01-15.21 882.28-14.36L882.28-14.36Q884.26-13.67 886.04-12.78 887.83-11.89 888.95-10.47 890.07-9.06 890.07-6.74L890.07-6.74Q890.07-3.71 887.75-1.55 885.43 0.61 881.06 0.61ZM900.47-10.08L897.73-10.08 897.17-29.88 897.08-34.52 901.1-34.52 900.98-29.88 900.47-10.08ZM899.08 0.61L899.08 0.61Q897.88 0.61 897.01-0.23 896.15-1.07 896.15-2.47L896.15-2.47Q896.15-3.86 897.01-4.74 897.88-5.62 899.08-5.62L899.08-5.62Q900.3-5.62 901.16-4.74 902.03-3.86 902.03-2.47L902.03-2.47Q902.03-1.07 901.16-0.23 900.3 0.61 899.08 0.61Z" opacity="1" transform="matrix(1,0,0,1,0,0)" fill="#000000" class="slogan-text-1" data-fill-palette-color="secondary" id="text-1"></path></svg></g></svg></g></svg></g></svg></g><g transform="matrix(1,0,0,1,420.7491322270937,3.355018307237387)"><svg viewBox="0 0 75.27127109011623 137.8405151837754" height="137.8405151837754" width="75.27127109011623"><g><svg xmlns="http://www.w3.org/2000/svg" xmlns:xlink="http://www.w3.org/1999/xlink" version="1.1" x="0" y="0" viewBox="-217 376.9 48 87.90000000000003" style="enable-background:new -247 370.9 100 100;" xml:space="preserve" height="137.8405151837754" width="75.27127109011623" class="icon-icon-0" data-fill-palette-color="accent" id="icon-0"><g fill="#454bfb" data-fill-palette-color="accent"><path d="M-176.5 464.8h-33c-4.1 0-7.5-3.4-7.5-7.5v-72.9c0-4.1 3.4-7.5 7.5-7.5h33c4.1 0 7.5 3.4 7.5 7.5v72.9C-169 461.5-172.4 464.8-176.5 464.8zM-209.5 377.9c-3.6 0-6.5 2.9-6.5 6.5v72.9c0 3.6 2.9 6.5 6.5 6.5h33c3.6 0 6.5-2.9 6.5-6.5v-72.9c0-3.6-2.9-6.5-6.5-6.5H-209.5zM-193 461.9c-2.6 0-4.7-2.1-4.7-4.7s2.1-4.7 4.7-4.7 4.7 2.1 4.7 4.7S-190.4 461.9-193 461.9zM-193 453.5c-2 0-3.7 1.7-3.7 3.7s1.7 3.7 3.7 3.7 3.7-1.7 3.7-3.7S-191 453.5-193 453.5zM-172.3 450.5h-41.3v-60.8h41.3V450.5zM-212.6 449.5h39.3v-58.8h-39.3V449.5zM-185.2 385.9h-15.5c-1 0-1.7-0.7-1.7-1.7s0.7-1.7 1.7-1.7h15.5c1 0 1.7 0.7 1.7 1.7S-184.2 385.9-185.2 385.9zM-200.7 383.5c-0.4 0-0.7 0.3-0.7 0.7s0.3 0.7 0.7 0.7h15.5c0.4 0 0.7-0.3 0.7-0.7s-0.3-0.7-0.7-0.7H-200.7z" fill="#454bfb" data-fill-palette-color="accent"></path></g><path d="M-193 403.4c-1 0-1.8 0.8-1.8 1.8v5.6c0 1 0.8 1.8 1.8 1.8s1.8-0.8 1.8-1.8v-5.6C-191.1 404.3-191.9 403.4-193 403.4z" fill="#454bfb" data-fill-palette-color="accent"></path><path d="M-201.1 403.4L-201.1 403.4c-1 0-1.8 0.8-1.8 1.8v5.6c0 1 0.8 1.8 1.8 1.8l0 0c1 0 1.8-0.8 1.8-1.8v-5.6C-199.3 404.3-200.1 403.4-201.1 403.4z" fill="#454bfb" data-fill-palette-color="accent"></path><path d="M-184.8 403.4c-1 0-1.8 0.8-1.8 1.8v5.6c0 1 0.8 1.8 1.8 1.8s1.8-0.8 1.8-1.8v-5.6C-182.9 404.3-183.8 403.4-184.8 403.4z" fill="#454bfb" data-fill-palette-color="accent"></path><path d="M-181.9 408.1v2.8c0 1.6-1.3 2.9-2.9 2.9s-2.9-1.3-2.9-2.9v-3h-2.4v3c0 1.6-1.3 2.9-2.9 2.9s-2.9-1.3-2.9-2.9v-3h-2.4v3c0 1.6-1.3 2.9-2.9 2.9s-2.9-1.3-2.9-2.9v-2.8c-1.9 0.5-3.4 2.3-3.4 4.3v19.8c0 2.5 2 4.5 4.5 4.5h19.8c2.5 0 4.5-2 4.5-4.5v-19.8C-178.6 410.3-180 408.6-181.9 408.1zM-190.2 431.1c0 0.7-0.6 1.2-1.2 1.2h-11.4c-0.7 0-1.2-0.6-1.2-1.2v-11.8c0-0.7 0.6-1.2 1.2-1.2h11.4c0.7 0 1.2 0.6 1.2 1.2V431.1zM-181.8 431.1c0 0.7-0.6 1.2-1.2 1.2h-3c-0.7 0-1.2-0.6-1.2-1.2v-3c0-0.7 0.6-1.2 1.2-1.2h3c0.7 0 1.2 0.6 1.2 1.2V431.1zM-181.8 422.3c0 0.7-0.6 1.2-1.2 1.2h-3c-0.7 0-1.2-0.6-1.2-1.2v-3c0-0.7 0.6-1.2 1.2-1.2h3c0.7 0 1.2 0.6 1.2 1.2V422.3z" fill="#454bfb" data-fill-palette-color="accent"></path><path d="M-192.1 423c0-0.1 0-0.2-0.1-0.3l-1.2-1.3c-0.1-0.1-0.2-0.1-0.3-0.1-0.1 0-0.2 0-0.3 0.1l-4.2 4.1-1.6-1.9c-0.1-0.1-0.2-0.2-0.3-0.2-0.1 0-0.2 0-0.3 0.1l-1.3 1.1c-0.1 0.1-0.1 0.2-0.2 0.3 0 0.1 0 0.2 0.1 0.3l3.1 3.7c0 0 0 0 0 0 0.1 0.1 0.2 0.1 0.3 0.1 0.1 0 0.2 0 0.3-0.1 0 0 0 0 0 0l5.9-5.8C-192.1 423.2-192.1 423.1-192.1 423z" fill="#454bfb" data-fill-palette-color="accent"></path></svg></g></svg></g></svg></g><defs></defs></svg><rect width="395.52" height="115.26266634375006" fill="none" stroke="none" visibility="hidden"></rect></g></svg></g></svg>